Coordinates
version=1
nRows=6
nColumns=63
inDegrees=yes

Units are S.I. units (second, meters, Newtons, ...)
If the header above contains a line with 'inDegrees', this indicates whether rotational values are in degrees (yes) or radians (no).

endheader
time	pelvis_tilt	pelvis_list	pelvis_rotation	pelvis_tx	pelvis_ty	pelvis_tz	hip_flexion_r	hip_adduction_r	hip_rotation_r	knee_angle_r	knee_angle_r_beta	ankle_angle_r	subtalar_angle_r	mtp_angle_r	hip_flexion_l	hip_adduction_l	hip_rotation_l	knee_angle_l	knee_angle_l_beta	ankle_angle_l	subtalar_angle_l	mtp_angle_l	L5_S1_Flex_Ext	L5_S1_Lat_Bending	L5_S1_axial_rotation	L4_L5_Flex_Ext	L4_L5_Lat_Bending	L4_L5_axial_rotation	L3_L4_Flex_Ext	L3_L4_Lat_Bending	L3_L4_axial_rotation	L2_L3_Flex_Ext	L2_L3_Lat_Bending	L2_L3_axial_rotation	L1_L2_Flex_Ext	L1_L2_Lat_Bending	L1_L2_axial_rotation	L1_T12_Flex_Ext	L1_T12_Lat_Bending	L1_T12_axial_rotation	Abs_r3	Abs_r2	Abs_r1	Abs_t1	Abs_t2	neck_flexion	neck_bending	neck_rotation	arm_flex_r	arm_add_r	arm_rot_r	elbow_flex_r	pro_sup_r	wrist_flex_r	wrist_dev_r	arm_flex_l	arm_add_l	arm_rot_l	elbow_flex_l	pro_sup_l	wrist_flex_l	wrist_dev_l
      0.78333333	      6.76064899	     -6.98768663	     99.94223192	      0.12390465	      0.65022322	      0.82628585	     -5.19769647	      5.52954701	     20.73683351	      0.78991703	      0.01378665	     24.15317266	    -16.40797939	      0.00000000	     -1.49327619	     -7.81837268	    -10.22381335	      7.95618668	      0.13886165	     36.45164604	     10.60071282	      0.00000000	      0.00994159	      1.05628293	     -1.78731200	      0.01846252	      1.40485630	     -1.89901900	      0.01633303	      2.56824631	     -1.89901900	      0.01136224	      2.56824631	     -1.56389800	      0.00923176	      2.15397215	     -1.45219100	      0.00568062	      1.63618226	     -1.34048400	      0.07101175	     11.94888375	     -9.94049317	      0.00000000	      0.00000000	     25.05798365	     -2.60947249	     20.41320013	     16.97743252	    -10.54737091	     88.01167854	     29.86748285	     46.18172750	      0.62353895	     -2.49703500	      1.71567932	     -6.00332155	     30.45170557	     58.01695263	     86.95549779	     -4.31791345	      8.19962810
      0.80000000	      7.13216378	     -6.93322577	    100.08042178	      0.12331564	      0.65070888	      0.82731803	     -5.07428116	      5.88402036	     20.68699480	      0.80063026	      0.01397363	     23.89594342	    -16.39752880	      0.00000000	     -1.39916675	     -8.16788392	    -10.06939098	      7.84012388	      0.13683598	     36.56274960	     10.60246298	      0.00000000	      0.02047071	      1.13683711	     -1.70941542	      0.03801615	      1.51199336	     -1.81625389	      0.03363133	      2.76410576	     -1.81625389	      0.02339597	      2.76410576	     -1.49573850	      0.01900910	      2.31823824	     -1.38890003	      0.01169696	      1.76096069	     -1.28206157	      0.14622022	     12.86012879	     -9.50725576	      0.00000000	      0.00000000	     25.04659072	     -3.27333785	     20.74663625	     16.76287245	    -11.26965039	     88.89397320	     27.48893836	     46.86745012	     -0.11160233	     -1.80849943	      1.51710910	     -7.24137613	     31.04921271	     60.33304034	     87.88658097	     -4.01472183	      8.43032576
      0.81666667	      7.15992909	     -6.91040978	    100.45953579	      0.12212404	      0.65107941	      0.82884004	     -4.96021410	      5.86878326	     20.59447370	      0.83034759	      0.01449230	     23.70000199	    -16.64190436	      0.00000000	     -1.16205798	     -8.13509653	     -9.73446068	      7.91499844	      0.13814278	     36.59590251	     10.50434352	      0.00000000	      0.01859142	      1.18929725	     -1.79322640	      0.03452612	      1.58176534	     -1.90530305	      0.03054384	      2.89165733	     -1.90530305	      0.02124813	      2.89165733	     -1.56907310	      0.01726399	      2.42521495	     -1.45699645	      0.01062314	      1.84222144	     -1.34491980	      0.13279663	     13.45356834	     -9.97338727	      0.00000000	      0.00000000	     25.19311384	     -4.27413516	     21.88035814	     18.11578557	    -11.27452632	     95.00770304	     24.51626448	     51.72463432	      0.14799140	      0.32848967	      1.59347008	     -8.83077186	     31.37432046	     63.90007152	     88.83795488	     -4.14432064	     13.48933920
      0.83333333	      7.53544457	     -7.00964103	    100.86156752	      0.12098405	      0.65100937	      0.82972330	     -4.71803279	      6.20685239	     20.33583712	      0.85325828	      0.01489217	     23.37365584	    -16.79672418	      0.00000000	     -0.89580590	     -8.41828341	     -9.05027759	      7.79144152	      0.13598631	     36.58336652	     10.05767279	      0.00000000	      0.04407705	      1.27668018	     -1.84453461	      0.08185550	      1.69798463	     -1.95981802	      0.07241419	      3.10412018	     -1.95981802	      0.05037566	      3.10412018	     -1.61396778	      0.04092995	      2.60340621	     -1.49868437	      0.02518563	      1.97757759	     -1.38340096	      0.31483798	     14.44206148	    -10.25874813	      0.00000000	      0.00000000	     25.28117265	     -4.81425743	     23.03333993	     18.34316461	    -11.41563792	     99.08957446	     21.27687170	     52.44911925	      2.86541497	      1.21680362	      1.60590236	     -9.55360145	     29.88566595	     67.00096096	     89.14621099	     -0.42869521	     17.80652973
      0.85000000	      7.72387082	     -7.01107567	    101.15985195	      0.12030772	      0.65107871	      0.83054487	     -4.62360158	      6.39557678	     20.06580275	      0.87139502	      0.01520871	     23.07849051	    -16.90460231	      0.00000000	     -0.81974222	     -8.52560830	     -8.08124001	      7.65429596	      0.13359267	     36.40769957	      9.19991808	      0.00000000	      0.04761342	      1.33373669	     -1.88751332	      0.08842288	      1.77386980	     -2.00548290	      0.07822409	      3.24284739	     -2.00548290	      0.05441738	      3.24284739	     -1.65157415	      0.04421382	      2.71975586	     -1.53360457	      0.02720631	      2.06595813	     -1.41563499	      0.34009789	     15.08749618	    -10.49778282	      0.00000000	      0.00000000	     25.19321745	     -5.21713833	     23.74932820	     20.57983352	     -9.41768106	    127.92997117	     16.39246592	     24.41084452	      7.33259380	     -0.75376962	      2.14744907	    -10.07468363	     28.06617380	     69.79963116	     89.28550869	      4.31695126	     21.90723496
      0.86666667	      8.16377937	     -7.01163839	    101.29558825	      0.11920031	      0.65108851	      0.83110805	     -4.51385735	      6.79562581	     19.89671346	      0.87964864	      0.01535276	     22.69354313	    -16.96687965	      0.00000000	     -0.82989547	     -8.87993809	     -7.75610084	      7.43663657	      0.12979379	     36.24767308	      8.95816705	      0.00000000	      0.05357559	      1.42779018	     -1.77794192	      0.09949522	      1.89896093	     -1.88906329	      0.08801933	      3.47152903	     -1.88906329	      0.06123154	      3.47152903	     -1.55569918	      0.04975029	      2.91154973	     -1.44457781	      0.03061309	      2.21164698	     -1.33345644	      0.38268505	     16.15144802	     -9.88837959	      0.00000000	      0.00000000	     25.30185191	     -6.17028463	     23.95945822	     20.01684587	    -10.55162695	    129.22110300	     15.03985329	     24.69282472	      9.45709549	      1.69260524	      3.47634427	    -10.09066442	     27.16946427	     71.99457574	     89.33891307	      6.94055395	     23.78231116
